<?xml version="1.0" encoding="UTF-8" standalone="no"?>
<!DOCTYPE svg PUBLIC "-//W3C//DTD SVG 1.1//EN"
 "http://www.w3.org/Graphics/SVG/1.1/DTD/svg11.dtd">
<!-- Generated by graphviz version 2.47.0 (20210316.0004)
 -->
<!-- Title: dependencies Pages: 1 -->
<svg width="504pt" height="211pt"
 viewBox="0.00 0.00 504.00 211.00" xmlns="http://www.w3.org/2000/svg" xmlns:xlink="http://www.w3.org/1999/xlink">
<g id="graph0" class="graph" transform="scale(1 1) rotate(0) translate(4 207)">
<title>dependencies</title>
<polygon fill="white" stroke="transparent" points="-4,4 -4,-207 500,-207 500,4 -4,4"/>
<text text-anchor="start" x="227.01" y="-42.4" font-family="Times-12" font-weight="bold" font-size="14.00">Legend</text>
<polygon fill="#ffffb3" stroke="transparent" points="14,-10 14,-30 34,-30 34,-10 14,-10"/>
<text text-anchor="start" x="37.63" y="-15.4" font-family="Times-12" font-size="14.00"> &#160;Declarations</text>
<polygon fill="#8dd3c7" stroke="transparent" points="127,-10 127,-30 147,-30 147,-10 127,-10"/>
<text text-anchor="start" x="150.73" y="-15.4" font-family="Times-12" font-size="14.00"> &#160;Module</text>
<polygon fill="#80b1d3" stroke="transparent" points="213,-10 213,-30 233,-30 233,-10 213,-10"/>
<text text-anchor="start" x="236.78" y="-15.4" font-family="Times-12" font-size="14.00"> &#160;Bootstrap</text>
<polygon fill="#fdb462" stroke="transparent" points="310,-10 310,-30 330,-30 330,-10 310,-10"/>
<text text-anchor="start" x="333.67" y="-15.4" font-family="Times-12" font-size="14.00"> &#160;Providers</text>
<polygon fill="#fb8072" stroke="transparent" points="406,-10 406,-30 426,-30 426,-10 406,-10"/>
<text text-anchor="start" x="429.73" y="-15.4" font-family="Times-12" font-size="14.00"> &#160;Exports</text>
<g id="clust1" class="cluster">
<title>cluster_PaymeModule</title>
<polygon fill="none" stroke="black" stroke-dasharray="1,5" points="90,-70 90,-195 406,-195 406,-70 90,-70"/>
</g>
<g id="clust6" class="cluster">
<title>cluster_PaymeModule_providers</title>
<polygon fill="none" stroke="black" points="98,-78 98,-130 398,-130 398,-78 98,-78"/>
</g>
<!-- PaymeService -->
<g id="node1" class="node">
<title>PaymeService</title>
<ellipse fill="#fdb462" stroke="black" cx="324" cy="-104" rx="66.05" ry="18"/>
<text text-anchor="middle" x="324" y="-99.8" font-family="Times,serif" font-size="14.00">PaymeService</text>
</g>
<!-- PaymeModule -->
<g id="node3" class="node">
<title>PaymeModule</title>
<polygon fill="#8dd3c7" stroke="black" points="296.65,-187 293.65,-191 272.65,-191 269.65,-187 199.35,-187 199.35,-151 296.65,-151 296.65,-187"/>
<text text-anchor="middle" x="248" y="-164.8" font-family="Times,serif" font-size="14.00">PaymeModule</text>
</g>
<!-- PaymeService&#45;&gt;PaymeModule -->
<g id="edge1" class="edge">
<title>PaymeService&#45;&gt;PaymeModule</title>
<path fill="none" stroke="black" d="M277.28,-116.84C277.28,-116.84 277.28,-140.52 277.28,-140.52"/>
<polygon fill="black" stroke="black" points="273.78,-140.52 277.28,-150.52 280.78,-140.52 273.78,-140.52"/>
</g>
<!-- PrismaService -->
<g id="node2" class="node">
<title>PrismaService</title>
<ellipse fill="#fdb462" stroke="black" cx="173" cy="-104" rx="66.63" ry="18"/>
<text text-anchor="middle" x="173" y="-99.8" font-family="Times,serif" font-size="14.00">PrismaService</text>
</g>
<!-- PrismaService&#45;&gt;PaymeModule -->
<g id="edge2" class="edge">
<title>PrismaService&#45;&gt;PaymeModule</title>
<path fill="none" stroke="black" d="M219.49,-117.15C219.49,-117.15 219.49,-140.69 219.49,-140.69"/>
<polygon fill="black" stroke="black" points="215.99,-140.69 219.49,-150.69 222.99,-140.69 215.99,-140.69"/>
</g>
</g>
</svg>
