<?xml version="1.0" encoding="UTF-8" standalone="no"?>
<!DOCTYPE svg PUBLIC "-//W3C//DTD SVG 1.1//EN"
 "http://www.w3.org/Graphics/SVG/1.1/DTD/svg11.dtd">
<!-- Generated by graphviz version 2.47.0 (20210316.0004)
 -->
<!-- Title: dependencies Pages: 1 -->
<svg width="653pt" height="211pt"
 viewBox="0.00 0.00 653.00 211.00" xmlns="http://www.w3.org/2000/svg" xmlns:xlink="http://www.w3.org/1999/xlink">
<g id="graph0" class="graph" transform="scale(1 1) rotate(0) translate(4 207)">
<title>dependencies</title>
<polygon fill="white" stroke="transparent" points="-4,4 -4,-207 649,-207 649,4 -4,4"/>
<text text-anchor="start" x="301.51" y="-42.4" font-family="Times-12" font-weight="bold" font-size="14.00">Legend</text>
<polygon fill="#ffffb3" stroke="transparent" points="88.5,-10 88.5,-30 108.5,-30 108.5,-10 88.5,-10"/>
<text text-anchor="start" x="112.13" y="-15.4" font-family="Times-12" font-size="14.00"> &#160;Declarations</text>
<polygon fill="#8dd3c7" stroke="transparent" points="201.5,-10 201.5,-30 221.5,-30 221.5,-10 201.5,-10"/>
<text text-anchor="start" x="225.23" y="-15.4" font-family="Times-12" font-size="14.00"> &#160;Module</text>
<polygon fill="#80b1d3" stroke="transparent" points="287.5,-10 287.5,-30 307.5,-30 307.5,-10 287.5,-10"/>
<text text-anchor="start" x="311.28" y="-15.4" font-family="Times-12" font-size="14.00"> &#160;Bootstrap</text>
<polygon fill="#fdb462" stroke="transparent" points="384.5,-10 384.5,-30 404.5,-30 404.5,-10 384.5,-10"/>
<text text-anchor="start" x="408.17" y="-15.4" font-family="Times-12" font-size="14.00"> &#160;Providers</text>
<polygon fill="#fb8072" stroke="transparent" points="480.5,-10 480.5,-30 500.5,-30 500.5,-10 480.5,-10"/>
<text text-anchor="start" x="504.23" y="-15.4" font-family="Times-12" font-size="14.00"> &#160;Exports</text>
<g id="clust1" class="cluster">
<title>cluster_PaymentsModule</title>
<polygon fill="none" stroke="black" stroke-dasharray="1,5" points="8,-70 8,-195 637,-195 637,-70 8,-70"/>
</g>
<g id="clust6" class="cluster">
<title>cluster_PaymentsModule_providers</title>
<polygon fill="none" stroke="black" points="16,-78 16,-130 629,-130 629,-78 16,-78"/>
</g>
<!-- ClickService -->
<g id="node1" class="node">
<title>ClickService</title>
<ellipse fill="#fdb462" stroke="black" cx="560" cy="-104" rx="60.83" ry="18"/>
<text text-anchor="middle" x="560" y="-99.8" font-family="Times,serif" font-size="14.00">ClickService</text>
</g>
<!-- PaymentsModule -->
<g id="node5" class="node">
<title>PaymentsModule</title>
<polygon fill="#8dd3c7" stroke="black" points="390.99,-187 387.99,-191 366.99,-191 363.99,-187 277.01,-187 277.01,-151 390.99,-151 390.99,-187"/>
<text text-anchor="middle" x="334" y="-164.8" font-family="Times,serif" font-size="14.00">PaymentsModule</text>
</g>
<!-- ClickService&#45;&gt;PaymentsModule -->
<g id="edge1" class="edge">
<title>ClickService&#45;&gt;PaymentsModule</title>
<path fill="none" stroke="black" d="M560,-122.11C560,-141.34 560,-169 560,-169 560,-169 401.03,-169 401.03,-169"/>
<polygon fill="black" stroke="black" points="401.03,-165.5 391.03,-169 401.03,-172.5 401.03,-165.5"/>
</g>
<!-- PaymeService -->
<g id="node2" class="node">
<title>PaymeService</title>
<ellipse fill="#fdb462" stroke="black" cx="415" cy="-104" rx="66.05" ry="18"/>
<text text-anchor="middle" x="415" y="-99.8" font-family="Times,serif" font-size="14.00">PaymeService</text>
</g>
<!-- PaymeService&#45;&gt;PaymentsModule -->
<g id="edge2" class="edge">
<title>PaymeService&#45;&gt;PaymentsModule</title>
<path fill="none" stroke="black" d="M369.86,-117.47C369.86,-117.47 369.86,-140.86 369.86,-140.86"/>
<polygon fill="black" stroke="black" points="366.36,-140.86 369.86,-150.86 373.36,-140.86 366.36,-140.86"/>
</g>
<!-- PaymentsService -->
<g id="node3" class="node">
<title>PaymentsService</title>
<ellipse fill="#fdb462" stroke="black" cx="253" cy="-104" rx="77.58" ry="18"/>
<text text-anchor="middle" x="253" y="-99.8" font-family="Times,serif" font-size="14.00">PaymentsService</text>
</g>
<!-- PaymentsService&#45;&gt;PaymentsModule -->
<g id="edge3" class="edge">
<title>PaymentsService&#45;&gt;PaymentsModule</title>
<path fill="none" stroke="black" d="M303.77,-117.78C303.77,-117.78 303.77,-140.55 303.77,-140.55"/>
<polygon fill="black" stroke="black" points="300.27,-140.55 303.77,-150.55 307.27,-140.55 300.27,-140.55"/>
</g>
<!-- PrismaService -->
<g id="node4" class="node">
<title>PrismaService</title>
<ellipse fill="#fdb462" stroke="black" cx="91" cy="-104" rx="66.63" ry="18"/>
<text text-anchor="middle" x="91" y="-99.8" font-family="Times,serif" font-size="14.00">PrismaService</text>
</g>
<!-- PrismaService&#45;&gt;PaymentsModule -->
<g id="edge4" class="edge">
<title>PrismaService&#45;&gt;PaymentsModule</title>
<path fill="none" stroke="black" d="M91,-122.11C91,-141.34 91,-169 91,-169 91,-169 266.72,-169 266.72,-169"/>
<polygon fill="black" stroke="black" points="266.72,-172.5 276.72,-169 266.72,-165.5 266.72,-172.5"/>
</g>
</g>
</svg>
