<?xml version="1.0" encoding="UTF-8" standalone="no"?>
<!DOCTYPE svg PUBLIC "-//W3C//DTD SVG 1.1//EN"
 "http://www.w3.org/Graphics/SVG/1.1/DTD/svg11.dtd">
<!-- Generated by graphviz version 2.47.0 (20210316.0004)
 -->
<!-- Title: dependencies Pages: 1 -->
<svg width="504pt" height="211pt"
 viewBox="0.00 0.00 504.00 211.00" xmlns="http://www.w3.org/2000/svg" xmlns:xlink="http://www.w3.org/1999/xlink">
<g id="graph0" class="graph" transform="scale(1 1) rotate(0) translate(4 207)">
<title>dependencies</title>
<polygon fill="white" stroke="transparent" points="-4,4 -4,-207 500,-207 500,4 -4,4"/>
<text text-anchor="start" x="227.01" y="-42.4" font-family="Times-12" font-weight="bold" font-size="14.00">Legend</text>
<polygon fill="#ffffb3" stroke="transparent" points="14,-10 14,-30 34,-30 34,-10 14,-10"/>
<text text-anchor="start" x="37.63" y="-15.4" font-family="Times-12" font-size="14.00"> &#160;Declarations</text>
<polygon fill="#8dd3c7" stroke="transparent" points="127,-10 127,-30 147,-30 147,-10 127,-10"/>
<text text-anchor="start" x="150.73" y="-15.4" font-family="Times-12" font-size="14.00"> &#160;Module</text>
<polygon fill="#80b1d3" stroke="transparent" points="213,-10 213,-30 233,-30 233,-10 213,-10"/>
<text text-anchor="start" x="236.78" y="-15.4" font-family="Times-12" font-size="14.00"> &#160;Bootstrap</text>
<polygon fill="#fdb462" stroke="transparent" points="310,-10 310,-30 330,-30 330,-10 310,-10"/>
<text text-anchor="start" x="333.67" y="-15.4" font-family="Times-12" font-size="14.00"> &#160;Providers</text>
<polygon fill="#fb8072" stroke="transparent" points="406,-10 406,-30 426,-30 426,-10 406,-10"/>
<text text-anchor="start" x="429.73" y="-15.4" font-family="Times-12" font-size="14.00"> &#160;Exports</text>
<g id="clust1" class="cluster">
<title>cluster_QuestionsModule</title>
<polygon fill="none" stroke="black" stroke-dasharray="1,5" points="77.5,-70 77.5,-195 418.5,-195 418.5,-70 77.5,-70"/>
</g>
<g id="clust6" class="cluster">
<title>cluster_QuestionsModule_providers</title>
<polygon fill="none" stroke="black" points="85.5,-78 85.5,-130 410.5,-130 410.5,-78 85.5,-78"/>
</g>
<!-- PrismaService -->
<g id="node1" class="node">
<title>PrismaService</title>
<ellipse fill="#fdb462" stroke="black" cx="335.5" cy="-104" rx="66.63" ry="18"/>
<text text-anchor="middle" x="335.5" y="-99.8" font-family="Times,serif" font-size="14.00">PrismaService</text>
</g>
<!-- QuestionsModule -->
<g id="node3" class="node">
<title>QuestionsModule</title>
<polygon fill="#8dd3c7" stroke="black" points="311.04,-187 308.04,-191 287.04,-191 284.04,-187 195.96,-187 195.96,-151 311.04,-151 311.04,-187"/>
<text text-anchor="middle" x="253.5" y="-164.8" font-family="Times,serif" font-size="14.00">QuestionsModule</text>
</g>
<!-- PrismaService&#45;&gt;QuestionsModule -->
<g id="edge1" class="edge">
<title>PrismaService&#45;&gt;QuestionsModule</title>
<path fill="none" stroke="black" d="M289.98,-117.47C289.98,-117.47 289.98,-140.86 289.98,-140.86"/>
<polygon fill="black" stroke="black" points="286.48,-140.86 289.98,-150.86 293.48,-140.86 286.48,-140.86"/>
</g>
<!-- QuestionsService -->
<g id="node2" class="node">
<title>QuestionsService</title>
<ellipse fill="#fdb462" stroke="black" cx="172.5" cy="-104" rx="78.73" ry="18"/>
<text text-anchor="middle" x="172.5" y="-99.8" font-family="Times,serif" font-size="14.00">QuestionsService</text>
</g>
<!-- QuestionsService&#45;&gt;QuestionsModule -->
<g id="edge2" class="edge">
<title>QuestionsService&#45;&gt;QuestionsModule</title>
<path fill="none" stroke="black" d="M223.42,-117.78C223.42,-117.78 223.42,-140.55 223.42,-140.55"/>
<polygon fill="black" stroke="black" points="219.92,-140.55 223.42,-150.55 226.92,-140.55 219.92,-140.55"/>
</g>
</g>
</svg>
