<?xml version="1.0" encoding="UTF-8" standalone="no"?>
<!DOCTYPE svg PUBLIC "-//W3C//DTD SVG 1.1//EN"
 "http://www.w3.org/Graphics/SVG/1.1/DTD/svg11.dtd">
<!-- Generated by graphviz version 2.47.0 (20210316.0004)
 -->
<!-- Title: dependencies Pages: 1 -->
<svg width="504pt" height="211pt"
 viewBox="0.00 0.00 504.00 211.00" xmlns="http://www.w3.org/2000/svg" xmlns:xlink="http://www.w3.org/1999/xlink">
<g id="graph0" class="graph" transform="scale(1 1) rotate(0) translate(4 207)">
<title>dependencies</title>
<polygon fill="white" stroke="transparent" points="-4,4 -4,-207 500,-207 500,4 -4,4"/>
<text text-anchor="start" x="227.01" y="-42.4" font-family="Times-12" font-weight="bold" font-size="14.00">Legend</text>
<polygon fill="#ffffb3" stroke="transparent" points="14,-10 14,-30 34,-30 34,-10 14,-10"/>
<text text-anchor="start" x="37.63" y="-15.4" font-family="Times-12" font-size="14.00"> &#160;Declarations</text>
<polygon fill="#8dd3c7" stroke="transparent" points="127,-10 127,-30 147,-30 147,-10 127,-10"/>
<text text-anchor="start" x="150.73" y="-15.4" font-family="Times-12" font-size="14.00"> &#160;Module</text>
<polygon fill="#80b1d3" stroke="transparent" points="213,-10 213,-30 233,-30 233,-10 213,-10"/>
<text text-anchor="start" x="236.78" y="-15.4" font-family="Times-12" font-size="14.00"> &#160;Bootstrap</text>
<polygon fill="#fdb462" stroke="transparent" points="310,-10 310,-30 330,-30 330,-10 310,-10"/>
<text text-anchor="start" x="333.67" y="-15.4" font-family="Times-12" font-size="14.00"> &#160;Providers</text>
<polygon fill="#fb8072" stroke="transparent" points="406,-10 406,-30 426,-30 426,-10 406,-10"/>
<text text-anchor="start" x="429.73" y="-15.4" font-family="Times-12" font-size="14.00"> &#160;Exports</text>
<g id="clust1" class="cluster">
<title>cluster_MessageModule</title>
<polygon fill="none" stroke="black" stroke-dasharray="1,5" points="82,-70 82,-195 414,-195 414,-70 82,-70"/>
</g>
<g id="clust6" class="cluster">
<title>cluster_MessageModule_providers</title>
<polygon fill="none" stroke="black" points="90,-78 90,-130 406,-130 406,-78 90,-78"/>
</g>
<!-- MessageService -->
<g id="node1" class="node">
<title>MessageService</title>
<ellipse fill="#fdb462" stroke="black" cx="324" cy="-104" rx="73.55" ry="18"/>
<text text-anchor="middle" x="324" y="-99.8" font-family="Times,serif" font-size="14.00">MessageService</text>
</g>
<!-- MessageModule -->
<g id="node3" class="node">
<title>MessageModule</title>
<polygon fill="#8dd3c7" stroke="black" points="298.03,-187 295.03,-191 274.03,-191 271.03,-187 189.97,-187 189.97,-151 298.03,-151 298.03,-187"/>
<text text-anchor="middle" x="244" y="-164.8" font-family="Times,serif" font-size="14.00">MessageModule</text>
</g>
<!-- MessageService&#45;&gt;MessageModule -->
<g id="edge1" class="edge">
<title>MessageService&#45;&gt;MessageModule</title>
<path fill="none" stroke="black" d="M274.24,-117.47C274.24,-117.47 274.24,-140.86 274.24,-140.86"/>
<polygon fill="black" stroke="black" points="270.74,-140.86 274.24,-150.86 277.74,-140.86 270.74,-140.86"/>
</g>
<!-- PrismaService -->
<g id="node2" class="node">
<title>PrismaService</title>
<ellipse fill="#fdb462" stroke="black" cx="165" cy="-104" rx="66.63" ry="18"/>
<text text-anchor="middle" x="165" y="-99.8" font-family="Times,serif" font-size="14.00">PrismaService</text>
</g>
<!-- PrismaService&#45;&gt;MessageModule -->
<g id="edge2" class="edge">
<title>PrismaService&#45;&gt;MessageModule</title>
<path fill="none" stroke="black" d="M210.77,-117.15C210.77,-117.15 210.77,-140.69 210.77,-140.69"/>
<polygon fill="black" stroke="black" points="207.27,-140.69 210.77,-150.69 214.27,-140.69 207.27,-140.69"/>
</g>
</g>
</svg>
