<?xml version="1.0" encoding="UTF-8" standalone="no"?>
<!DOCTYPE svg PUBLIC "-//W3C//DTD SVG 1.1//EN"
 "http://www.w3.org/Graphics/SVG/1.1/DTD/svg11.dtd">
<!-- Generated by graphviz version 2.47.0 (20210316.0004)
 -->
<!-- Title: dependencies Pages: 1 -->
<svg width="3636pt" height="287pt"
 viewBox="0.00 0.00 3636.00 287.00" xmlns="http://www.w3.org/2000/svg" xmlns:xlink="http://www.w3.org/1999/xlink">
<g id="graph0" class="graph" transform="scale(1 1) rotate(0) translate(4 283)">
<title>dependencies</title>
<polygon fill="white" stroke="transparent" points="-4,4 -4,-283 3632,-283 3632,4 -4,4"/>
<text text-anchor="start" x="1793.01" y="-42.4" font-family="Times-12" font-weight="bold" font-size="14.00">Legend</text>
<polygon fill="#ffffb3" stroke="transparent" points="1580,-10 1580,-30 1600,-30 1600,-10 1580,-10"/>
<text text-anchor="start" x="1603.63" y="-15.4" font-family="Times-12" font-size="14.00"> &#160;Declarations</text>
<polygon fill="#8dd3c7" stroke="transparent" points="1693,-10 1693,-30 1713,-30 1713,-10 1693,-10"/>
<text text-anchor="start" x="1716.73" y="-15.4" font-family="Times-12" font-size="14.00"> &#160;Module</text>
<polygon fill="#80b1d3" stroke="transparent" points="1779,-10 1779,-30 1799,-30 1799,-10 1779,-10"/>
<text text-anchor="start" x="1802.78" y="-15.4" font-family="Times-12" font-size="14.00"> &#160;Bootstrap</text>
<polygon fill="#fdb462" stroke="transparent" points="1876,-10 1876,-30 1896,-30 1896,-10 1876,-10"/>
<text text-anchor="start" x="1899.67" y="-15.4" font-family="Times-12" font-size="14.00"> &#160;Providers</text>
<polygon fill="#fb8072" stroke="transparent" points="1972,-10 1972,-30 1992,-30 1992,-10 1972,-10"/>
<text text-anchor="start" x="1995.73" y="-15.4" font-family="Times-12" font-size="14.00"> &#160;Exports</text>
<g id="clust1" class="cluster">
<title>cluster_AdminModule</title>
<polygon fill="none" stroke="black" stroke-dasharray="1,5" points="8,-70 8,-206 326,-206 326,-70 8,-70"/>
</g>
<g id="clust6" class="cluster">
<title>cluster_AdminModule_providers</title>
<polygon fill="none" stroke="black" points="16,-78 16,-130 318,-130 318,-78 16,-78"/>
</g>
<g id="clust7" class="cluster">
<title>cluster_AppModule</title>
<polygon fill="none" stroke="black" stroke-dasharray="1,5" points="334,-146 334,-271 2469,-271 2469,-146 334,-146"/>
</g>
<g id="clust9" class="cluster">
<title>cluster_AppModule_imports</title>
<polygon fill="none" stroke="black" points="480,-154 480,-206 2461,-206 2461,-154 480,-154"/>
</g>
<g id="clust12" class="cluster">
<title>cluster_AppModule_providers</title>
<polygon fill="none" stroke="black" points="342,-154 342,-206 472,-206 472,-154 342,-154"/>
</g>
<g id="clust13" class="cluster">
<title>cluster_AuthModule</title>
<polygon fill="none" stroke="black" stroke-dasharray="1,5" points="334,-70 334,-138 484,-138 484,-70 334,-70"/>
</g>
<g id="clust18" class="cluster">
<title>cluster_AuthModule_providers</title>
<polygon fill="none" stroke="black" points="342,-78 342,-130 476,-130 476,-78 342,-78"/>
</g>
<g id="clust19" class="cluster">
<title>cluster_BallsModule</title>
<polygon fill="none" stroke="black" stroke-dasharray="1,5" points="492,-70 492,-138 644,-138 644,-70 492,-70"/>
</g>
<g id="clust24" class="cluster">
<title>cluster_BallsModule_providers</title>
<polygon fill="none" stroke="black" points="500,-78 500,-130 636,-130 636,-78 500,-78"/>
</g>
<g id="clust25" class="cluster">
<title>cluster_ChatModule</title>
<polygon fill="none" stroke="black" stroke-dasharray="1,5" points="652,-70 652,-138 800,-138 800,-70 652,-70"/>
</g>
<g id="clust30" class="cluster">
<title>cluster_ChatModule_providers</title>
<polygon fill="none" stroke="black" points="660,-78 660,-130 792,-130 792,-78 660,-78"/>
</g>
<g id="clust31" class="cluster">
<title>cluster_CheckModule</title>
<polygon fill="none" stroke="black" stroke-dasharray="1,5" points="808,-70 808,-138 970,-138 970,-70 808,-70"/>
</g>
<g id="clust36" class="cluster">
<title>cluster_CheckModule_providers</title>
<polygon fill="none" stroke="black" points="816,-78 816,-130 962,-130 962,-78 816,-78"/>
</g>
<g id="clust37" class="cluster">
<title>cluster_ClickModule</title>
<polygon fill="none" stroke="black" stroke-dasharray="1,5" points="3294,-70 3294,-206 3448,-206 3448,-70 3294,-70"/>
</g>
<g id="clust42" class="cluster">
<title>cluster_ClickModule_providers</title>
<polygon fill="none" stroke="black" points="3302,-78 3302,-130 3440,-130 3440,-78 3302,-78"/>
</g>
<g id="clust43" class="cluster">
<title>cluster_CoursesModule</title>
<polygon fill="none" stroke="black" stroke-dasharray="1,5" points="978,-70 978,-138 1152,-138 1152,-70 978,-70"/>
</g>
<g id="clust48" class="cluster">
<title>cluster_CoursesModule_providers</title>
<polygon fill="none" stroke="black" points="986,-78 986,-130 1144,-130 1144,-78 986,-78"/>
</g>
<g id="clust49" class="cluster">
<title>cluster_FinancesModule</title>
<polygon fill="none" stroke="black" stroke-dasharray="1,5" points="1160,-70 1160,-138 1340,-138 1340,-70 1160,-70"/>
</g>
<g id="clust54" class="cluster">
<title>cluster_FinancesModule_providers</title>
<polygon fill="none" stroke="black" points="1168,-78 1168,-130 1332,-130 1332,-78 1168,-78"/>
</g>
<g id="clust55" class="cluster">
<title>cluster_ItemModule</title>
<polygon fill="none" stroke="black" stroke-dasharray="1,5" points="1348,-70 1348,-138 1496,-138 1496,-70 1348,-70"/>
</g>
<g id="clust60" class="cluster">
<title>cluster_ItemModule_providers</title>
<polygon fill="none" stroke="black" points="1356,-78 1356,-130 1488,-130 1488,-78 1356,-78"/>
</g>
<g id="clust61" class="cluster">
<title>cluster_LessonsModule</title>
<polygon fill="none" stroke="black" stroke-dasharray="1,5" points="1504,-70 1504,-138 1678,-138 1678,-70 1504,-70"/>
</g>
<g id="clust66" class="cluster">
<title>cluster_LessonsModule_providers</title>
<polygon fill="none" stroke="black" points="1512,-78 1512,-130 1670,-130 1670,-78 1512,-78"/>
</g>
<g id="clust67" class="cluster">
<title>cluster_LibraryModule</title>
<polygon fill="none" stroke="black" stroke-dasharray="1,5" points="1686,-70 1686,-138 1856,-138 1856,-70 1686,-70"/>
</g>
<g id="clust72" class="cluster">
<title>cluster_LibraryModule_providers</title>
<polygon fill="none" stroke="black" points="1694,-78 1694,-130 1848,-130 1848,-78 1694,-78"/>
</g>
<g id="clust73" class="cluster">
<title>cluster_MentorModule</title>
<polygon fill="none" stroke="black" stroke-dasharray="1,5" points="1864,-70 1864,-138 2032,-138 2032,-70 1864,-70"/>
</g>
<g id="clust78" class="cluster">
<title>cluster_MentorModule_providers</title>
<polygon fill="none" stroke="black" points="1872,-78 1872,-130 2024,-130 2024,-78 1872,-78"/>
</g>
<g id="clust79" class="cluster">
<title>cluster_MessageModule</title>
<polygon fill="none" stroke="black" stroke-dasharray="1,5" points="2040,-70 2040,-138 2220,-138 2220,-70 2040,-70"/>
</g>
<g id="clust84" class="cluster">
<title>cluster_MessageModule_providers</title>
<polygon fill="none" stroke="black" points="2048,-78 2048,-130 2212,-130 2212,-78 2048,-78"/>
</g>
<g id="clust85" class="cluster">
<title>cluster_ModulesModule</title>
<polygon fill="none" stroke="black" stroke-dasharray="1,5" points="2228,-70 2228,-138 2408,-138 2408,-70 2228,-70"/>
</g>
<g id="clust90" class="cluster">
<title>cluster_ModulesModule_providers</title>
<polygon fill="none" stroke="black" points="2236,-78 2236,-130 2400,-130 2400,-78 2236,-78"/>
</g>
<g id="clust91" class="cluster">
<title>cluster_NewsModule</title>
<polygon fill="none" stroke="black" stroke-dasharray="1,5" points="2416,-70 2416,-138 2572,-138 2572,-70 2416,-70"/>
</g>
<g id="clust96" class="cluster">
<title>cluster_NewsModule_providers</title>
<polygon fill="none" stroke="black" points="2424,-78 2424,-130 2564,-130 2564,-78 2424,-78"/>
</g>
<g id="clust97" class="cluster">
<title>cluster_NotesModule</title>
<polygon fill="none" stroke="black" stroke-dasharray="1,5" points="2580,-70 2580,-138 2738,-138 2738,-70 2580,-70"/>
</g>
<g id="clust102" class="cluster">
<title>cluster_NotesModule_providers</title>
<polygon fill="none" stroke="black" points="2588,-78 2588,-130 2730,-130 2730,-78 2588,-78"/>
</g>
<g id="clust103" class="cluster">
<title>cluster_PaymeModule</title>
<polygon fill="none" stroke="black" stroke-dasharray="1,5" points="3456,-70 3456,-206 3620,-206 3620,-70 3456,-70"/>
</g>
<g id="clust108" class="cluster">
<title>cluster_PaymeModule_providers</title>
<polygon fill="none" stroke="black" points="3464,-78 3464,-130 3612,-130 3612,-78 3464,-78"/>
</g>
<g id="clust109" class="cluster">
<title>cluster_PaymentsModule</title>
<polygon fill="none" stroke="black" stroke-dasharray="1,5" points="2746,-70 2746,-138 2934,-138 2934,-70 2746,-70"/>
</g>
<g id="clust114" class="cluster">
<title>cluster_PaymentsModule_providers</title>
<polygon fill="none" stroke="black" points="2754,-78 2754,-130 2926,-130 2926,-78 2754,-78"/>
</g>
<g id="clust115" class="cluster">
<title>cluster_QuestionsModule</title>
<polygon fill="none" stroke="black" stroke-dasharray="1,5" points="2942,-70 2942,-138 3132,-138 3132,-70 2942,-70"/>
</g>
<g id="clust120" class="cluster">
<title>cluster_QuestionsModule_providers</title>
<polygon fill="none" stroke="black" points="2950,-78 2950,-130 3124,-130 3124,-78 2950,-78"/>
</g>
<g id="clust121" class="cluster">
<title>cluster_SmsModule</title>
<polygon fill="none" stroke="black" stroke-dasharray="1,5" points="3140,-70 3140,-138 3286,-138 3286,-70 3140,-70"/>
</g>
<g id="clust126" class="cluster">
<title>cluster_SmsModule_providers</title>
<polygon fill="none" stroke="black" points="3148,-78 3148,-130 3278,-130 3278,-78 3148,-78"/>
</g>
<!-- AdminService -->
<g id="node1" class="node">
<title>AdminService</title>
<ellipse fill="#fdb462" stroke="black" cx="91" cy="-104" rx="66.63" ry="18"/>
<text text-anchor="middle" x="91" y="-99.8" font-family="Times,serif" font-size="14.00">AdminService</text>
</g>
<!-- AdminModule -->
<g id="node3" class="node">
<title>AdminModule</title>
<polygon fill="#8dd3c7" stroke="black" points="292.44,-198 289.44,-202 268.44,-202 265.44,-198 193.56,-198 193.56,-162 292.44,-162 292.44,-198"/>
<text text-anchor="middle" x="243" y="-175.8" font-family="Times,serif" font-size="14.00">AdminModule</text>
</g>
<!-- AdminService&#45;&gt;AdminModule -->
<g id="edge1" class="edge">
<title>AdminService&#45;&gt;AdminModule</title>
<path fill="none" stroke="black" d="M91,-122.01C91,-144.49 91,-180 91,-180 91,-180 183.65,-180 183.65,-180"/>
<polygon fill="black" stroke="black" points="183.65,-183.5 193.65,-180 183.65,-176.5 183.65,-183.5"/>
</g>
<!-- PrismaService -->
<g id="node2" class="node">
<title>PrismaService</title>
<ellipse fill="#fdb462" stroke="black" cx="243" cy="-104" rx="66.63" ry="18"/>
<text text-anchor="middle" x="243" y="-99.8" font-family="Times,serif" font-size="14.00">PrismaService</text>
</g>
<!-- PrismaService&#45;&gt;AdminModule -->
<g id="edge2" class="edge">
<title>PrismaService&#45;&gt;AdminModule</title>
<path fill="none" stroke="black" d="M202.73,-118.65C202.73,-118.65 202.73,-151.9 202.73,-151.9"/>
<polygon fill="black" stroke="black" points="199.23,-151.9 202.73,-161.9 206.23,-151.9 199.23,-151.9"/>
</g>
<!-- AuthModule -->
<g id="node4" class="node">
<title>AuthModule</title>
<polygon fill="#8dd3c7" stroke="black" points="575.55,-198 572.55,-202 551.55,-202 548.55,-198 488.45,-198 488.45,-162 575.55,-162 575.55,-198"/>
<text text-anchor="middle" x="532" y="-175.8" font-family="Times,serif" font-size="14.00">AuthModule</text>
</g>
<!-- PrismaService&#45;&gt;AuthModule -->
<g id="edge25" class="edge">
<title>PrismaService&#45;&gt;AuthModule</title>
<path fill="none" stroke="black" d="M296.13,-115.3C296.13,-128.04 296.13,-147 296.13,-147 296.13,-147 494.87,-147 494.87,-147 494.87,-147 494.87,-151.96 494.87,-151.96"/>
<polygon fill="black" stroke="black" points="491.37,-151.96 494.87,-161.96 498.37,-151.96 491.37,-151.96"/>
</g>
<!-- ChatModule -->
<g id="node6" class="node">
<title>ChatModule</title>
<polygon fill="#8dd3c7" stroke="black" points="679.99,-198 676.99,-202 655.99,-202 652.99,-198 594.01,-198 594.01,-162 679.99,-162 679.99,-198"/>
<text text-anchor="middle" x="637" y="-175.8" font-family="Times,serif" font-size="14.00">ChatModule</text>
</g>
<!-- PrismaService&#45;&gt;ChatModule -->
<g id="edge28" class="edge">
<title>PrismaService&#45;&gt;ChatModule</title>
<path fill="none" stroke="black" d="M298.08,-114.6C298.08,-127.04 298.08,-146 298.08,-146 298.08,-146 605.28,-146 605.28,-146 605.28,-146 605.28,-151.81 605.28,-151.81"/>
<polygon fill="black" stroke="black" points="601.78,-151.81 605.28,-161.81 608.78,-151.81 601.78,-151.81"/>
</g>
<!-- CheckModule -->
<g id="node7" class="node">
<title>CheckModule</title>
<polygon fill="#8dd3c7" stroke="black" points="793.82,-198 790.82,-202 769.82,-202 766.82,-198 698.18,-198 698.18,-162 793.82,-162 793.82,-198"/>
<text text-anchor="middle" x="746" y="-175.8" font-family="Times,serif" font-size="14.00">CheckModule</text>
</g>
<!-- PrismaService&#45;&gt;CheckModule -->
<g id="edge30" class="edge">
<title>PrismaService&#45;&gt;CheckModule</title>
<path fill="none" stroke="black" d="M300.04,-113.68C300.04,-125.52 300.04,-144 300.04,-144 300.04,-144 741.29,-144 741.29,-144 741.29,-144 741.29,-151.58 741.29,-151.58"/>
<polygon fill="black" stroke="black" points="737.79,-151.58 741.29,-161.58 744.79,-151.58 737.79,-151.58"/>
</g>
<!-- CoursesModule -->
<g id="node8" class="node">
<title>CoursesModule</title>
<polygon fill="#8dd3c7" stroke="black" points="916.15,-198 913.15,-202 892.15,-202 889.15,-198 811.85,-198 811.85,-162 916.15,-162 916.15,-198"/>
<text text-anchor="middle" x="864" y="-175.8" font-family="Times,serif" font-size="14.00">CoursesModule</text>
</g>
<!-- PrismaService&#45;&gt;CoursesModule -->
<g id="edge34" class="edge">
<title>PrismaService&#45;&gt;CoursesModule</title>
<path fill="none" stroke="black" d="M301.99,-112.66C301.99,-124.15 301.99,-143 301.99,-143 301.99,-143 818.01,-143 818.01,-143 818.01,-143 818.01,-151.93 818.01,-151.93"/>
<polygon fill="black" stroke="black" points="814.51,-151.93 818.01,-161.93 821.51,-151.93 814.51,-151.93"/>
</g>
<!-- ItemModule -->
<g id="node10" class="node">
<title>ItemModule</title>
<polygon fill="#8dd3c7" stroke="black" points="1019.71,-198 1016.71,-202 995.71,-202 992.71,-198 934.29,-198 934.29,-162 1019.71,-162 1019.71,-198"/>
<text text-anchor="middle" x="977" y="-175.8" font-family="Times,serif" font-size="14.00">ItemModule</text>
</g>
<!-- PrismaService&#45;&gt;ItemModule -->
<g id="edge37" class="edge">
<title>PrismaService&#45;&gt;ItemModule</title>
<path fill="none" stroke="black" d="M303.95,-111.69C303.95,-122.79 303.95,-142 303.95,-142 303.95,-142 944.03,-142 944.03,-142 944.03,-142 944.03,-151.89 944.03,-151.89"/>
<polygon fill="black" stroke="black" points="940.53,-151.89 944.03,-161.89 947.53,-151.89 940.53,-151.89"/>
</g>
<!-- LessonsModule -->
<g id="node11" class="node">
<title>LessonsModule</title>
<polygon fill="#8dd3c7" stroke="black" points="1142.15,-198 1139.15,-202 1118.15,-202 1115.15,-198 1037.85,-198 1037.85,-162 1142.15,-162 1142.15,-198"/>
<text text-anchor="middle" x="1090" y="-175.8" font-family="Times,serif" font-size="14.00">LessonsModule</text>
</g>
<!-- PrismaService&#45;&gt;LessonsModule -->
<g id="edge39" class="edge">
<title>PrismaService&#45;&gt;LessonsModule</title>
<path fill="none" stroke="black" d="M305.9,-110.11C305.9,-120.62 305.9,-141 305.9,-141 305.9,-141 1070.48,-141 1070.48,-141 1070.48,-141 1070.48,-151.87 1070.48,-151.87"/>
<polygon fill="black" stroke="black" points="1066.98,-151.87 1070.48,-161.87 1073.98,-151.87 1066.98,-151.87"/>
</g>
<!-- LibraryModule -->
<g id="node12" class="node">
<title>LibraryModule</title>
<polygon fill="#8dd3c7" stroke="black" points="1261.53,-198 1258.53,-202 1237.53,-202 1234.53,-198 1160.47,-198 1160.47,-162 1261.53,-162 1261.53,-198"/>
<text text-anchor="middle" x="1211" y="-175.8" font-family="Times,serif" font-size="14.00">LibraryModule</text>
</g>
<!-- PrismaService&#45;&gt;LibraryModule -->
<g id="edge41" class="edge">
<title>PrismaService&#45;&gt;LibraryModule</title>
<path fill="none" stroke="black" d="M307.86,-108.58C307.86,-118.06 307.86,-139 307.86,-139 307.86,-139 1167.96,-139 1167.96,-139 1167.96,-139 1167.96,-151.9 1167.96,-151.9"/>
<polygon fill="black" stroke="black" points="1164.46,-151.9 1167.96,-161.9 1171.46,-151.9 1164.46,-151.9"/>
</g>
<!-- MessageModule -->
<g id="node14" class="node">
<title>MessageModule</title>
<polygon fill="#8dd3c7" stroke="black" points="1494.03,-198 1491.03,-202 1470.03,-202 1467.03,-198 1385.97,-198 1385.97,-162 1494.03,-162 1494.03,-198"/>
<text text-anchor="middle" x="1440" y="-175.8" font-family="Times,serif" font-size="14.00">MessageModule</text>
</g>
<!-- PrismaService&#45;&gt;MessageModule -->
<g id="edge44" class="edge">
<title>PrismaService&#45;&gt;MessageModule</title>
<path fill="none" stroke="black" d="M211.68,-120.11C211.68,-128.49 211.68,-137 211.68,-137 211.68,-137 1432.71,-137 1432.71,-137 1432.71,-137 1432.71,-151.51 1432.71,-151.51"/>
<polygon fill="black" stroke="black" points="1429.21,-151.51 1432.71,-161.51 1436.21,-151.51 1429.21,-151.51"/>
</g>
<!-- ModulesModule -->
<g id="node15" class="node">
<title>ModulesModule</title>
<polygon fill="#8dd3c7" stroke="black" points="1621.05,-198 1618.05,-202 1597.05,-202 1594.05,-198 1512.95,-198 1512.95,-162 1621.05,-162 1621.05,-198"/>
<text text-anchor="middle" x="1567" y="-175.8" font-family="Times,serif" font-size="14.00">ModulesModule</text>
</g>
<!-- PrismaService&#45;&gt;ModulesModule -->
<g id="edge46" class="edge">
<title>PrismaService&#45;&gt;ModulesModule</title>
<path fill="none" stroke="black" d="M220.63,-121.31C220.63,-128.41 220.63,-135 220.63,-135 220.63,-135 1545.24,-135 1545.24,-135 1545.24,-135 1545.24,-151.96 1545.24,-151.96"/>
<polygon fill="black" stroke="black" points="1541.74,-151.96 1545.24,-161.96 1548.74,-151.96 1541.74,-151.96"/>
</g>
<!-- NewsModule -->
<g id="node16" class="node">
<title>NewsModule</title>
<polygon fill="#8dd3c7" stroke="black" points="1730.92,-198 1727.92,-202 1706.92,-202 1703.92,-198 1639.08,-198 1639.08,-162 1730.92,-162 1730.92,-198"/>
<text text-anchor="middle" x="1685" y="-175.8" font-family="Times,serif" font-size="14.00">NewsModule</text>
</g>
<!-- PrismaService&#45;&gt;NewsModule -->
<g id="edge48" class="edge">
<title>PrismaService&#45;&gt;NewsModule</title>
<path fill="none" stroke="black" d="M229.58,-121.8C229.58,-128.26 229.58,-134 229.58,-134 229.58,-134 1650.7,-134 1650.7,-134 1650.7,-134 1650.7,-151.82 1650.7,-151.82"/>
<polygon fill="black" stroke="black" points="1647.2,-151.82 1650.7,-161.82 1654.2,-151.82 1647.2,-151.82"/>
</g>
<!-- NotesModule -->
<g id="node17" class="node">
<title>NotesModule</title>
<polygon fill="#8dd3c7" stroke="black" points="1841.21,-198 1838.21,-202 1817.21,-202 1814.21,-198 1748.79,-198 1748.79,-162 1841.21,-162 1841.21,-198"/>
<text text-anchor="middle" x="1795" y="-175.8" font-family="Times,serif" font-size="14.00">NotesModule</text>
</g>
<!-- PrismaService&#45;&gt;NotesModule -->
<g id="edge50" class="edge">
<title>PrismaService&#45;&gt;NotesModule</title>
<path fill="none" stroke="black" d="M238.53,-122.2C238.53,-128.03 238.53,-133 238.53,-133 238.53,-133 1779.25,-133 1779.25,-133 1779.25,-133 1779.25,-151.96 1779.25,-151.96"/>
<polygon fill="black" stroke="black" points="1775.75,-151.96 1779.25,-161.96 1782.75,-151.96 1775.75,-151.96"/>
</g>
<!-- PaymentsModule -->
<g id="node18" class="node">
<title>PaymentsModule</title>
<polygon fill="#8dd3c7" stroke="black" points="2452.99,-198 2449.99,-202 2428.99,-202 2425.99,-198 2339.01,-198 2339.01,-162 2452.99,-162 2452.99,-198"/>
<text text-anchor="middle" x="2396" y="-175.8" font-family="Times,serif" font-size="14.00">PaymentsModule</text>
</g>
<!-- PrismaService&#45;&gt;PaymentsModule -->
<g id="edge56" class="edge">
<title>PrismaService&#45;&gt;PaymentsModule</title>
<path fill="none" stroke="black" d="M265.37,-121.33C265.37,-124.06 265.37,-126 265.37,-126 265.37,-126 2365.4,-126 2365.4,-126 2365.4,-126 2365.4,-151.72 2365.4,-151.72"/>
<polygon fill="black" stroke="black" points="2361.9,-151.72 2365.4,-161.72 2368.9,-151.72 2361.9,-151.72"/>
</g>
<!-- QuestionsModule -->
<g id="node19" class="node">
<title>QuestionsModule</title>
<polygon fill="#8dd3c7" stroke="black" points="1974.54,-198 1971.54,-202 1950.54,-202 1947.54,-198 1859.46,-198 1859.46,-162 1974.54,-162 1974.54,-198"/>
<text text-anchor="middle" x="1917" y="-175.8" font-family="Times,serif" font-size="14.00">QuestionsModule</text>
</g>
<!-- PrismaService&#45;&gt;QuestionsModule -->
<g id="edge57" class="edge">
<title>PrismaService&#45;&gt;QuestionsModule</title>
<path fill="none" stroke="black" d="M247.47,-122.21C247.47,-127.55 247.47,-132 247.47,-132 247.47,-132 1869.41,-132 1869.41,-132 1869.41,-132 1869.41,-151.85 1869.41,-151.85"/>
<polygon fill="black" stroke="black" points="1865.91,-151.85 1869.41,-161.85 1872.91,-151.85 1865.91,-151.85"/>
</g>
<!-- SmsModule -->
<g id="node20" class="node">
<title>SmsModule</title>
<polygon fill="#8dd3c7" stroke="black" points="2202.67,-198 2199.67,-202 2178.67,-202 2175.67,-198 2119.33,-198 2119.33,-162 2202.67,-162 2202.67,-198"/>
<text text-anchor="middle" x="2161" y="-175.8" font-family="Times,serif" font-size="14.00">SmsModule</text>
</g>
<!-- PrismaService&#45;&gt;SmsModule -->
<g id="edge59" class="edge">
<title>PrismaService&#45;&gt;SmsModule</title>
<path fill="none" stroke="black" d="M256.42,-121.63C256.42,-125.77 256.42,-129 256.42,-129 256.42,-129 2147.06,-129 2147.06,-129 2147.06,-129 2147.06,-151.88 2147.06,-151.88"/>
<polygon fill="black" stroke="black" points="2143.56,-151.88 2147.06,-161.88 2150.56,-151.88 2143.56,-151.88"/>
</g>
<!-- AppModule -->
<g id="node21" class="node">
<title>AppModule</title>
<polygon fill="#8dd3c7" stroke="black" points="1252.66,-263 1249.66,-267 1228.66,-267 1225.66,-263 1169.34,-263 1169.34,-227 1252.66,-227 1252.66,-263"/>
<text text-anchor="middle" x="1211" y="-240.8" font-family="Times,serif" font-size="14.00">AppModule</text>
</g>
<!-- PrismaService&#45;&gt;AppModule -->
<g id="edge23" class="edge">
<title>PrismaService&#45;&gt;AppModule</title>
<path fill="none" stroke="black" d="M294.17,-115.93C294.17,-151.76 294.17,-256 294.17,-256 294.17,-256 1159.22,-256 1159.22,-256"/>
<polygon fill="black" stroke="black" points="1159.22,-259.5 1169.22,-256 1159.22,-252.5 1159.22,-259.5"/>
</g>
<!-- ClickModule -->
<g id="node28" class="node">
<title>ClickModule</title>
<polygon fill="#8dd3c7" stroke="black" points="3403.88,-198 3400.88,-202 3379.88,-202 3376.88,-198 3314.12,-198 3314.12,-162 3403.88,-162 3403.88,-198"/>
<text text-anchor="middle" x="3359" y="-175.8" font-family="Times,serif" font-size="14.00">ClickModule</text>
</g>
<!-- PrismaService&#45;&gt;ClickModule -->
<g id="edge32" class="edge">
<title>PrismaService&#45;&gt;ClickModule</title>
<path fill="none" stroke="black" d="M274.32,-120.13C274.32,-122.95 274.32,-125 274.32,-125 274.32,-125 3344.02,-125 3344.02,-125 3344.02,-125 3344.02,-151.99 3344.02,-151.99"/>
<polygon fill="black" stroke="black" points="3340.52,-151.99 3344.02,-161.99 3347.52,-151.99 3340.52,-151.99"/>
</g>
<!-- PaymeModule -->
<g id="node40" class="node">
<title>PaymeModule</title>
<polygon fill="#8dd3c7" stroke="black" points="3573.65,-198 3570.65,-202 3549.65,-202 3546.65,-198 3476.35,-198 3476.35,-162 3573.65,-162 3573.65,-198"/>
<text text-anchor="middle" x="3525" y="-175.8" font-family="Times,serif" font-size="14.00">PaymeModule</text>
</g>
<!-- PrismaService&#45;&gt;PaymeModule -->
<g id="edge52" class="edge">
<title>PrismaService&#45;&gt;PaymeModule</title>
<path fill="none" stroke="black" d="M283.27,-118.53C283.27,-121.64 283.27,-124 283.27,-124 283.27,-124 3500.59,-124 3500.59,-124 3500.59,-124 3500.59,-151.97 3500.59,-151.97"/>
<polygon fill="black" stroke="black" points="3497.09,-151.97 3500.59,-161.97 3504.09,-151.97 3497.09,-151.97"/>
</g>
<!-- AdminModule&#45;&gt;AppModule -->
<g id="edge3" class="edge">
<title>AdminModule&#45;&gt;AppModule</title>
<path fill="none" stroke="black" d="M243,-198.15C243,-221.76 243,-260 243,-260 243,-260 1159.1,-260 1159.1,-260"/>
<polygon fill="black" stroke="black" points="1159.1,-263.5 1169.1,-260 1159.1,-256.5 1159.1,-263.5"/>
</g>
<!-- AuthModule&#45;&gt;AppModule -->
<g id="edge4" class="edge">
<title>AuthModule&#45;&gt;AppModule</title>
<path fill="none" stroke="black" d="M532,-198.13C532,-218.57 532,-249 532,-249 532,-249 1159.29,-249 1159.29,-249"/>
<polygon fill="black" stroke="black" points="1159.29,-252.5 1169.29,-249 1159.29,-245.5 1159.29,-252.5"/>
</g>
<!-- BallsModule -->
<g id="node5" class="node">
<title>BallsModule</title>
<polygon fill="#8dd3c7" stroke="black" points="1368.33,-198 1365.33,-202 1344.33,-202 1341.33,-198 1279.67,-198 1279.67,-162 1368.33,-162 1368.33,-198"/>
<text text-anchor="middle" x="1324" y="-175.8" font-family="Times,serif" font-size="14.00">BallsModule</text>
</g>
<!-- BallsModule&#45;&gt;AppModule -->
<g id="edge5" class="edge">
<title>BallsModule&#45;&gt;AppModule</title>
<path fill="none" stroke="black" d="M1324,-198.12C1324,-212.78 1324,-231 1324,-231 1324,-231 1262.76,-231 1262.76,-231"/>
<polygon fill="black" stroke="black" points="1262.76,-227.5 1252.76,-231 1262.76,-234.5 1262.76,-227.5"/>
</g>
<!-- ChatModule&#45;&gt;AppModule -->
<g id="edge6" class="edge">
<title>ChatModule&#45;&gt;AppModule</title>
<path fill="none" stroke="black" d="M637,-198.11C637,-217.34 637,-245 637,-245 637,-245 1159.26,-245 1159.26,-245"/>
<polygon fill="black" stroke="black" points="1159.26,-248.5 1169.26,-245 1159.26,-241.5 1159.26,-248.5"/>
</g>
<!-- CheckModule&#45;&gt;AppModule -->
<g id="edge7" class="edge">
<title>CheckModule&#45;&gt;AppModule</title>
<path fill="none" stroke="black" d="M746,-198.27C746,-216.56 746,-242 746,-242 746,-242 1159.33,-242 1159.33,-242"/>
<polygon fill="black" stroke="black" points="1159.33,-245.5 1169.33,-242 1159.33,-238.5 1159.33,-245.5"/>
</g>
<!-- CoursesModule&#45;&gt;AppModule -->
<g id="edge8" class="edge">
<title>CoursesModule&#45;&gt;AppModule</title>
<path fill="none" stroke="black" d="M864,-198.03C864,-215.06 864,-238 864,-238 864,-238 1159.14,-238 1159.14,-238"/>
<polygon fill="black" stroke="black" points="1159.14,-241.5 1169.14,-238 1159.14,-234.5 1159.14,-241.5"/>
</g>
<!-- FinancesModule -->
<g id="node9" class="node">
<title>FinancesModule</title>
<polygon fill="#8dd3c7" stroke="black" points="2101.81,-198 2098.81,-202 2077.81,-202 2074.81,-198 1992.19,-198 1992.19,-162 2101.81,-162 2101.81,-198"/>
<text text-anchor="middle" x="2047" y="-175.8" font-family="Times,serif" font-size="14.00">FinancesModule</text>
</g>
<!-- FinancesModule&#45;&gt;AppModule -->
<g id="edge9" class="edge">
<title>FinancesModule&#45;&gt;AppModule</title>
<path fill="none" stroke="black" d="M2047,-198.03C2047,-218.77 2047,-250 2047,-250 2047,-250 1262.74,-250 1262.74,-250"/>
<polygon fill="black" stroke="black" points="1262.74,-246.5 1252.74,-250 1262.74,-253.5 1262.74,-246.5"/>
</g>
<!-- ItemModule&#45;&gt;AppModule -->
<g id="edge10" class="edge">
<title>ItemModule&#45;&gt;AppModule</title>
<path fill="none" stroke="black" d="M977,-198.01C977,-214.05 977,-235 977,-235 977,-235 1159.17,-235 1159.17,-235"/>
<polygon fill="black" stroke="black" points="1159.17,-238.5 1169.17,-235 1159.17,-231.5 1159.17,-238.5"/>
</g>
<!-- LessonsModule&#45;&gt;AppModule -->
<g id="edge11" class="edge">
<title>LessonsModule&#45;&gt;AppModule</title>
<path fill="none" stroke="black" d="M1090,-198.12C1090,-212.78 1090,-231 1090,-231 1090,-231 1159.02,-231 1159.02,-231"/>
<polygon fill="black" stroke="black" points="1159.02,-234.5 1169.02,-231 1159.02,-227.5 1159.02,-234.5"/>
</g>
<!-- LibraryModule&#45;&gt;AppModule -->
<g id="edge12" class="edge">
<title>LibraryModule&#45;&gt;AppModule</title>
<path fill="none" stroke="black" d="M1224.94,-198.11C1224.94,-198.11 1224.94,-216.99 1224.94,-216.99"/>
<polygon fill="black" stroke="black" points="1221.44,-216.99 1224.94,-226.99 1228.44,-216.99 1221.44,-216.99"/>
</g>
<!-- LibraryModule&#45;&gt;AppModule -->
<g id="edge13" class="edge">
<title>LibraryModule&#45;&gt;AppModule</title>
<path fill="none" stroke="black" d="M1197.06,-198.11C1197.06,-198.11 1197.06,-216.99 1197.06,-216.99"/>
<polygon fill="black" stroke="black" points="1193.56,-216.99 1197.06,-226.99 1200.56,-216.99 1193.56,-216.99"/>
</g>
<!-- MentorModule -->
<g id="node13" class="node">
<title>MentorModule</title>
<polygon fill="#8dd3c7" stroke="black" points="2321.26,-198 2318.26,-202 2297.26,-202 2294.26,-198 2220.74,-198 2220.74,-162 2321.26,-162 2321.26,-198"/>
<text text-anchor="middle" x="2271" y="-175.8" font-family="Times,serif" font-size="14.00">MentorModule</text>
</g>
<!-- MentorModule&#45;&gt;AppModule -->
<g id="edge14" class="edge">
<title>MentorModule&#45;&gt;AppModule</title>
<path fill="none" stroke="black" d="M2271,-198.25C2271,-221.02 2271,-257 2271,-257 2271,-257 1262.88,-257 1262.88,-257"/>
<polygon fill="black" stroke="black" points="1262.88,-253.5 1252.88,-257 1262.88,-260.5 1262.88,-253.5"/>
</g>
<!-- MessageModule&#45;&gt;AppModule -->
<g id="edge15" class="edge">
<title>MessageModule&#45;&gt;AppModule</title>
<path fill="none" stroke="black" d="M1440,-198.28C1440,-213.95 1440,-234 1440,-234 1440,-234 1262.74,-234 1262.74,-234"/>
<polygon fill="black" stroke="black" points="1262.74,-230.5 1252.74,-234 1262.74,-237.5 1262.74,-230.5"/>
</g>
<!-- ModulesModule&#45;&gt;AppModule -->
<g id="edge16" class="edge">
<title>ModulesModule&#45;&gt;AppModule</title>
<path fill="none" stroke="black" d="M1567,-198.04C1567,-214.73 1567,-237 1567,-237 1567,-237 1262.88,-237 1262.88,-237"/>
<polygon fill="black" stroke="black" points="1262.88,-233.5 1252.88,-237 1262.88,-240.5 1262.88,-233.5"/>
</g>
<!-- NewsModule&#45;&gt;AppModule -->
<g id="edge17" class="edge">
<title>NewsModule&#45;&gt;AppModule</title>
<path fill="none" stroke="black" d="M1685,-198.3C1685,-216.27 1685,-241 1685,-241 1685,-241 1263.06,-241 1263.06,-241"/>
<polygon fill="black" stroke="black" points="1263.06,-237.5 1253.06,-241 1263.06,-244.5 1263.06,-237.5"/>
</g>
<!-- NotesModule&#45;&gt;AppModule -->
<g id="edge18" class="edge">
<title>NotesModule&#45;&gt;AppModule</title>
<path fill="none" stroke="black" d="M1795,-198.17C1795,-217.09 1795,-244 1795,-244 1795,-244 1263,-244 1263,-244"/>
<polygon fill="black" stroke="black" points="1263,-240.5 1253,-244 1263,-247.5 1263,-240.5"/>
</g>
<!-- PaymentsModule&#45;&gt;AppModule -->
<g id="edge19" class="edge">
<title>PaymentsModule&#45;&gt;AppModule</title>
<path fill="none" stroke="black" d="M2396,-198.15C2396,-221.76 2396,-260 2396,-260 2396,-260 1262.83,-260 1262.83,-260"/>
<polygon fill="black" stroke="black" points="1262.83,-256.5 1252.83,-260 1262.83,-263.5 1262.83,-256.5"/>
</g>
<!-- QuestionsModule&#45;&gt;AppModule -->
<g id="edge20" class="edge">
<title>QuestionsModule&#45;&gt;AppModule</title>
<path fill="none" stroke="black" d="M1917,-198.31C1917,-218.15 1917,-247 1917,-247 1917,-247 1262.79,-247 1262.79,-247"/>
<polygon fill="black" stroke="black" points="1262.79,-243.5 1252.79,-247 1262.79,-250.5 1262.79,-243.5"/>
</g>
<!-- SmsModule&#45;&gt;AppModule -->
<g id="edge21" class="edge">
<title>SmsModule&#45;&gt;AppModule</title>
<path fill="none" stroke="black" d="M2161,-198.29C2161,-220.21 2161,-254 2161,-254 2161,-254 1262.74,-254 1262.74,-254"/>
<polygon fill="black" stroke="black" points="1262.74,-250.5 1252.74,-254 1262.74,-257.5 1262.74,-250.5"/>
</g>
<!-- AppService -->
<g id="node22" class="node">
<title>AppService</title>
<ellipse fill="#fdb462" stroke="black" cx="407" cy="-180" rx="56.74" ry="18"/>
<text text-anchor="middle" x="407" y="-175.8" font-family="Times,serif" font-size="14.00">AppService</text>
</g>
<!-- AppService&#45;&gt;AppModule -->
<g id="edge22" class="edge">
<title>AppService&#45;&gt;AppModule</title>
<path fill="none" stroke="black" d="M407,-198.04C407,-219.66 407,-253 407,-253 407,-253 1159.19,-253 1159.19,-253"/>
<polygon fill="black" stroke="black" points="1159.19,-256.5 1169.19,-253 1159.19,-249.5 1159.19,-256.5"/>
</g>
<!-- AuthService -->
<g id="node23" class="node">
<title>AuthService</title>
<ellipse fill="#fdb462" stroke="black" cx="409" cy="-104" rx="59.11" ry="18"/>
<text text-anchor="middle" x="409" y="-99.8" font-family="Times,serif" font-size="14.00">AuthService</text>
</g>
<!-- AuthService&#45;&gt;AuthModule -->
<g id="edge24" class="edge">
<title>AuthService&#45;&gt;AuthModule</title>
<path fill="none" stroke="black" d="M468.38,-104C486.39,-104 501.51,-104 501.51,-104 501.51,-104 501.51,-151.99 501.51,-151.99"/>
<polygon fill="black" stroke="black" points="498.01,-151.99 501.51,-161.99 505.01,-151.99 498.01,-151.99"/>
</g>
<!-- BallsService -->
<g id="node24" class="node">
<title>BallsService</title>
<ellipse fill="#fdb462" stroke="black" cx="568" cy="-104" rx="59.68" ry="18"/>
<text text-anchor="middle" x="568" y="-99.8" font-family="Times,serif" font-size="14.00">BallsService</text>
</g>
<!-- BallsService&#45;&gt;BallsModule -->
<g id="edge26" class="edge">
<title>BallsService&#45;&gt;BallsModule</title>
<path fill="none" stroke="black" d="M616.56,-114.76C616.56,-124.72 616.56,-138 616.56,-138 616.56,-138 1294.66,-138 1294.66,-138 1294.66,-138 1294.66,-151.94 1294.66,-151.94"/>
<polygon fill="black" stroke="black" points="1291.16,-151.94 1294.66,-161.94 1298.16,-151.94 1291.16,-151.94"/>
</g>
<!-- ChatService -->
<g id="node25" class="node">
<title>ChatService</title>
<ellipse fill="#fdb462" stroke="black" cx="726" cy="-104" rx="58.46" ry="18"/>
<text text-anchor="middle" x="726" y="-99.8" font-family="Times,serif" font-size="14.00">ChatService</text>
</g>
<!-- ChatService&#45;&gt;ChatModule -->
<g id="edge27" class="edge">
<title>ChatService&#45;&gt;ChatModule</title>
<path fill="none" stroke="black" d="M673.88,-112.13C673.88,-112.13 673.88,-151.88 673.88,-151.88"/>
<polygon fill="black" stroke="black" points="670.38,-151.88 673.88,-161.88 677.38,-151.88 670.38,-151.88"/>
</g>
<!-- CheckService -->
<g id="node26" class="node">
<title>CheckService</title>
<ellipse fill="#fdb462" stroke="black" cx="889" cy="-104" rx="64.83" ry="18"/>
<text text-anchor="middle" x="889" y="-99.8" font-family="Times,serif" font-size="14.00">CheckService</text>
</g>
<!-- CheckService&#45;&gt;CheckModule -->
<g id="edge29" class="edge">
<title>CheckService&#45;&gt;CheckModule</title>
<path fill="none" stroke="black" d="M824.22,-104C804.98,-104 788.94,-104 788.94,-104 788.94,-104 788.94,-151.99 788.94,-151.99"/>
<polygon fill="black" stroke="black" points="785.44,-151.99 788.94,-161.99 792.44,-151.99 785.44,-151.99"/>
</g>
<!-- ClickService -->
<g id="node27" class="node">
<title>ClickService</title>
<ellipse fill="#fdb462" stroke="black" cx="3371" cy="-104" rx="60.83" ry="18"/>
<text text-anchor="middle" x="3371" y="-99.8" font-family="Times,serif" font-size="14.00">ClickService</text>
</g>
<!-- ClickService&#45;&gt;PaymentsModule -->
<g id="edge53" class="edge">
<title>ClickService&#45;&gt;PaymentsModule</title>
<path fill="none" stroke="black" d="M3309.91,-104C3298.39,-104 3289.86,-104 3289.86,-104 3289.86,-104 3289.86,-186 3289.86,-186 3289.86,-186 2463.27,-186 2463.27,-186"/>
<polygon fill="black" stroke="black" points="2463.27,-182.5 2453.27,-186 2463.27,-189.5 2463.27,-182.5"/>
</g>
<!-- ClickService&#45;&gt;ClickModule -->
<g id="edge31" class="edge">
<title>ClickService&#45;&gt;ClickModule</title>
<path fill="none" stroke="black" d="M3373.98,-122.01C3373.98,-122.01 3373.98,-151.85 3373.98,-151.85"/>
<polygon fill="black" stroke="black" points="3370.48,-151.85 3373.98,-161.85 3377.48,-151.85 3370.48,-151.85"/>
</g>
<!-- CoursesService -->
<g id="node29" class="node">
<title>CoursesService</title>
<ellipse fill="#fdb462" stroke="black" cx="1065" cy="-104" rx="71.2" ry="18"/>
<text text-anchor="middle" x="1065" y="-99.8" font-family="Times,serif" font-size="14.00">CoursesService</text>
</g>
<!-- CoursesService&#45;&gt;CoursesModule -->
<g id="edge33" class="edge">
<title>CoursesService&#45;&gt;CoursesModule</title>
<path fill="none" stroke="black" d="M1002.47,-112.9C1002.47,-125.76 1002.47,-148 1002.47,-148 1002.47,-148 870.33,-148 870.33,-148 870.33,-148 870.33,-151.76 870.33,-151.76"/>
<polygon fill="black" stroke="black" points="866.83,-151.76 870.33,-161.76 873.83,-151.76 866.83,-151.76"/>
</g>
<!-- FinancesService -->
<g id="node30" class="node">
<title>FinancesService</title>
<ellipse fill="#fdb462" stroke="black" cx="1250" cy="-104" rx="74.13" ry="18"/>
<text text-anchor="middle" x="1250" y="-99.8" font-family="Times,serif" font-size="14.00">FinancesService</text>
</g>
<!-- FinancesService&#45;&gt;FinancesModule -->
<g id="edge35" class="edge">
<title>FinancesService&#45;&gt;FinancesModule</title>
<path fill="none" stroke="black" d="M1309.49,-114.88C1309.49,-122 1309.49,-130 1309.49,-130 1309.49,-130 2000.37,-130 2000.37,-130 2000.37,-130 2000.37,-151.95 2000.37,-151.95"/>
<polygon fill="black" stroke="black" points="1996.87,-151.95 2000.37,-161.95 2003.87,-151.95 1996.87,-151.95"/>
</g>
<!-- ItemService -->
<g id="node31" class="node">
<title>ItemService</title>
<ellipse fill="#fdb462" stroke="black" cx="1422" cy="-104" rx="57.88" ry="18"/>
<text text-anchor="middle" x="1422" y="-99.8" font-family="Times,serif" font-size="14.00">ItemService</text>
</g>
<!-- ItemService&#45;&gt;ItemModule -->
<g id="edge36" class="edge">
<title>ItemService&#45;&gt;ItemModule</title>
<path fill="none" stroke="black" d="M1376.95,-115.61C1376.95,-129.23 1376.95,-150 1376.95,-150 1376.95,-150 1011.03,-150 1011.03,-150 1011.03,-150 1011.03,-151.86 1011.03,-151.86"/>
<polygon fill="black" stroke="black" points="1007.53,-151.86 1011.03,-161.86 1014.53,-151.86 1007.53,-151.86"/>
</g>
<!-- LessonsService -->
<g id="node32" class="node">
<title>LessonsService</title>
<ellipse fill="#fdb462" stroke="black" cx="1591" cy="-104" rx="71.2" ry="18"/>
<text text-anchor="middle" x="1591" y="-99.8" font-family="Times,serif" font-size="14.00">LessonsService</text>
</g>
<!-- LessonsService&#45;&gt;LessonsModule -->
<g id="edge38" class="edge">
<title>LessonsService&#45;&gt;LessonsModule</title>
<path fill="none" stroke="black" d="M1570.59,-121.5C1570.59,-134.86 1570.59,-151 1570.59,-151 1570.59,-151 1103.29,-151 1103.29,-151 1103.29,-151 1103.29,-152.08 1103.29,-152.08"/>
<polygon fill="black" stroke="black" points="1099.79,-151.8 1103.29,-161.8 1106.79,-151.8 1099.79,-151.8"/>
</g>
<!-- LibraryService -->
<g id="node33" class="node">
<title>LibraryService</title>
<ellipse fill="#fdb462" stroke="black" cx="1771" cy="-104" rx="68.9" ry="18"/>
<text text-anchor="middle" x="1771" y="-99.8" font-family="Times,serif" font-size="14.00">LibraryService</text>
</g>
<!-- LibraryService&#45;&gt;LibraryModule -->
<g id="edge40" class="edge">
<title>LibraryService&#45;&gt;LibraryModule</title>
<path fill="none" stroke="black" d="M1711.6,-113.25C1711.6,-127.2 1711.6,-152 1711.6,-152 1711.6,-152 1218.72,-152 1218.72,-152 1218.72,-152 1218.72,-152.98 1218.72,-152.98"/>
<polygon fill="black" stroke="black" points="1215.22,-151.79 1218.72,-161.79 1222.22,-151.79 1215.22,-151.79"/>
</g>
<!-- MentorService -->
<g id="node34" class="node">
<title>MentorService</title>
<ellipse fill="#fdb462" stroke="black" cx="1948" cy="-104" rx="68.34" ry="18"/>
<text text-anchor="middle" x="1948" y="-99.8" font-family="Times,serif" font-size="14.00">MentorService</text>
</g>
<!-- MentorService&#45;&gt;MentorModule -->
<g id="edge42" class="edge">
<title>MentorService&#45;&gt;MentorModule</title>
<path fill="none" stroke="black" d="M2008.39,-112.66C2008.39,-119.54 2008.39,-128 2008.39,-128 2008.39,-128 2232.42,-128 2232.42,-128 2232.42,-128 2232.42,-151.81 2232.42,-151.81"/>
<polygon fill="black" stroke="black" points="2228.92,-151.81 2232.42,-161.81 2235.92,-151.81 2228.92,-151.81"/>
</g>
<!-- MessageService -->
<g id="node35" class="node">
<title>MessageService</title>
<ellipse fill="#fdb462" stroke="black" cx="2130" cy="-104" rx="73.55" ry="18"/>
<text text-anchor="middle" x="2130" y="-99.8" font-family="Times,serif" font-size="14.00">MessageService</text>
</g>
<!-- MessageService&#45;&gt;MessageModule -->
<g id="edge43" class="edge">
<title>MessageService&#45;&gt;MessageModule</title>
<path fill="none" stroke="black" d="M2078.94,-117.13C2078.94,-131.65 2078.94,-153 2078.94,-153 2078.94,-153 1486.98,-153 1486.98,-153 1486.98,-153 1486.98,-153.88 1486.98,-153.88"/>
<polygon fill="black" stroke="black" points="1483.48,-151.84 1486.98,-161.84 1490.48,-151.84 1483.48,-151.84"/>
</g>
<!-- ModulesService -->
<g id="node36" class="node">
<title>ModulesService</title>
<ellipse fill="#fdb462" stroke="black" cx="2318" cy="-104" rx="73.58" ry="18"/>
<text text-anchor="middle" x="2318" y="-99.8" font-family="Times,serif" font-size="14.00">ModulesService</text>
</g>
<!-- ModulesService&#45;&gt;ModulesModule -->
<g id="edge45" class="edge">
<title>ModulesService&#45;&gt;ModulesModule</title>
<path fill="none" stroke="black" d="M2282.8,-119.86C2282.8,-134.83 2282.8,-155 2282.8,-155 2282.8,-155 1595.93,-155 1595.93,-155 1595.93,-155 1595.93,-155.68 1595.93,-155.68"/>
<polygon fill="black" stroke="black" points="1592.43,-151.83 1595.93,-161.83 1599.43,-151.83 1592.43,-151.83"/>
</g>
<!-- NewsService -->
<g id="node37" class="node">
<title>NewsService</title>
<ellipse fill="#fdb462" stroke="black" cx="2494" cy="-104" rx="61.95" ry="18"/>
<text text-anchor="middle" x="2494" y="-99.8" font-family="Times,serif" font-size="14.00">NewsService</text>
</g>
<!-- NewsService&#45;&gt;NewsModule -->
<g id="edge47" class="edge">
<title>NewsService&#45;&gt;NewsModule</title>
<path fill="none" stroke="black" d="M2439.01,-112.59C2439.01,-127.36 2439.01,-156 2439.01,-156 2439.01,-156 1721.16,-156 1721.16,-156 1721.16,-156 1721.16,-156.58 1721.16,-156.58"/>
<polygon fill="black" stroke="black" points="1717.66,-151.81 1721.16,-161.81 1724.66,-151.81 1717.66,-151.81"/>
</g>
<!-- NotesService -->
<g id="node38" class="node">
<title>NotesService</title>
<ellipse fill="#fdb462" stroke="black" cx="2659" cy="-104" rx="62.54" ry="18"/>
<text text-anchor="middle" x="2659" y="-99.8" font-family="Times,serif" font-size="14.00">NotesService</text>
</g>
<!-- NotesService&#45;&gt;NotesModule -->
<g id="edge49" class="edge">
<title>NotesService&#45;&gt;NotesModule</title>
<path fill="none" stroke="black" d="M2659,-122.24C2659,-137.57 2659,-157 2659,-157 2659,-157 1809.6,-157 1809.6,-157 1809.6,-157 1809.6,-157.49 1809.6,-157.49"/>
<polygon fill="black" stroke="black" points="1806.1,-151.88 1809.6,-161.88 1813.1,-151.88 1806.1,-151.88"/>
</g>
<!-- PaymeService -->
<g id="node39" class="node">
<title>PaymeService</title>
<ellipse fill="#fdb462" stroke="black" cx="3538" cy="-104" rx="66.05" ry="18"/>
<text text-anchor="middle" x="3538" y="-99.8" font-family="Times,serif" font-size="14.00">PaymeService</text>
</g>
<!-- PaymeService&#45;&gt;PaymentsModule -->
<g id="edge54" class="edge">
<title>PaymeService&#45;&gt;PaymentsModule</title>
<path fill="none" stroke="black" d="M3525,-121.72C3525,-138.46 3525,-161 3525,-161 3525,-161 2446,-161 2446,-161 2446,-161 2446,-161.08 2446,-161.08"/>
<polygon fill="black" stroke="black" points="2442.5,-151.82 2446,-161.82 2449.5,-151.82 2442.5,-151.82"/>
</g>
<!-- PaymeService&#45;&gt;PaymeModule -->
<g id="edge51" class="edge">
<title>PaymeService&#45;&gt;PaymeModule</title>
<path fill="none" stroke="black" d="M3549.41,-122.01C3549.41,-122.01 3549.41,-151.85 3549.41,-151.85"/>
<polygon fill="black" stroke="black" points="3545.91,-151.85 3549.41,-161.85 3552.91,-151.85 3545.91,-151.85"/>
</g>
<!-- PaymentsService -->
<g id="node41" class="node">
<title>PaymentsService</title>
<ellipse fill="#fdb462" stroke="black" cx="2840" cy="-104" rx="77.58" ry="18"/>
<text text-anchor="middle" x="2840" y="-99.8" font-family="Times,serif" font-size="14.00">PaymentsService</text>
</g>
<!-- PaymentsService&#45;&gt;PaymentsModule -->
<g id="edge55" class="edge">
<title>PaymentsService&#45;&gt;PaymentsModule</title>
<path fill="none" stroke="black" d="M2840,-122.03C2840,-142.77 2840,-174 2840,-174 2840,-174 2463.14,-174 2463.14,-174"/>
<polygon fill="black" stroke="black" points="2463.14,-170.5 2453.14,-174 2463.14,-177.5 2463.14,-170.5"/>
</g>
<!-- QuestionsService -->
<g id="node42" class="node">
<title>QuestionsService</title>
<ellipse fill="#fdb462" stroke="black" cx="3037" cy="-104" rx="78.73" ry="18"/>
<text text-anchor="middle" x="3037" y="-99.8" font-family="Times,serif" font-size="14.00">QuestionsService</text>
</g>
<!-- QuestionsService&#45;&gt;QuestionsModule -->
<g id="edge58" class="edge">
<title>QuestionsService&#45;&gt;QuestionsModule</title>
<path fill="none" stroke="black" d="M3037,-122.01C3037,-138.05 3037,-159 3037,-159 3037,-159 1927.18,-159 1927.18,-159 1927.18,-159 1927.18,-159.29 1927.18,-159.29"/>
<polygon fill="black" stroke="black" points="1923.68,-151.92 1927.18,-161.92 1930.68,-151.92 1923.68,-151.92"/>
</g>
<!-- SmsService -->
<g id="node43" class="node">
<title>SmsService</title>
<ellipse fill="#fdb462" stroke="black" cx="3213" cy="-104" rx="56.76" ry="18"/>
<text text-anchor="middle" x="3213" y="-99.8" font-family="Times,serif" font-size="14.00">SmsService</text>
</g>
<!-- SmsService&#45;&gt;SmsModule -->
<g id="edge60" class="edge">
<title>SmsService&#45;&gt;SmsModule</title>
<path fill="none" stroke="black" d="M3213,-122.03C3213,-138.4 3213,-160 3213,-160 3213,-160 2174.94,-160 2174.94,-160 2174.94,-160 2174.94,-160.18 2174.94,-160.18"/>
<polygon fill="black" stroke="black" points="2171.45,-151.85 2174.94,-161.85 2178.45,-151.85 2171.45,-151.85"/>
</g>
</g>
</svg>
